<mxfile host="app.diagrams.net" agent="Mozilla/5.0 (Windows NT 10.0; Win64; x64; rv:128.0) Gecko/20100101 Firefox/128.0" version="28.0.3">
  <diagram name="Página-1" id="lebsumqHRmX6z1p4eFI_">
    <mxGraphModel dx="679" dy="371" grid="1" gridSize="10" guides="1" tooltips="1" connect="1" arrows="1" fold="1" page="1" pageScale="1" pageWidth="827" pageHeight="1169" math="0" shadow="0">
      <root>
        <mxCell id="0" />
        <mxCell id="1" parent="0" />
        <mxCell id="YhR1CS_ZlBuHnzhJW7DY-1" value="" style="ellipse;whiteSpace=wrap;html=1;aspect=fixed;fillColor=light-dark(#FFF2DC,#2F2A23);strokeColor=light-dark(#7c7c7c, #996500);gradientColor=none;fillStyle=solid;strokeWidth=2;allowArrows=1;backgroundOutline=0;" vertex="1" parent="1">
          <mxGeometry x="205" y="270" width="385" height="385" as="geometry" />
        </mxCell>
        <mxCell id="YhR1CS_ZlBuHnzhJW7DY-2" value="" style="shape=mxgraph.arrows2.wedgeArrow;html=1;bendable=0;startWidth=4.444444444444443;fillColor=#7C7C7C;defaultFillColor=invert;defaultGradientColor=invert;rounded=0;strokeColor=#7C7C7C;entryX=0.562;entryY=0.003;entryDx=0;entryDy=0;entryPerimeter=0;" edge="1" parent="1">
          <mxGeometry width="100" height="100" relative="1" as="geometry">
            <mxPoint x="397.61" y="270" as="sourcePoint" />
            <mxPoint x="419.37" y="271.155" as="targetPoint" />
          </mxGeometry>
        </mxCell>
        <mxCell id="YhR1CS_ZlBuHnzhJW7DY-7" value="&lt;font face=&quot;Tahoma&quot;&gt;Comprensión del negocio&lt;br&gt;&lt;/font&gt;" style="rounded=1;whiteSpace=wrap;html=1;fontSize=12;fillColor=#f5f5f5;fontColor=#333333;strokeColor=#666666;" vertex="1" parent="1">
          <mxGeometry x="270" y="330" width="100" height="40" as="geometry" />
        </mxCell>
        <mxCell id="YhR1CS_ZlBuHnzhJW7DY-8" value="&lt;font face=&quot;Tahoma&quot;&gt;Comprensión de los datos&lt;br&gt;&lt;/font&gt;" style="rounded=1;whiteSpace=wrap;html=1;fontSize=12;fillColor=#f5f5f5;fontColor=#333333;strokeColor=#666666;" vertex="1" parent="1">
          <mxGeometry x="430" y="330" width="100" height="40" as="geometry" />
        </mxCell>
        <mxCell id="YhR1CS_ZlBuHnzhJW7DY-9" value="&lt;font face=&quot;Tahoma&quot;&gt;Preparación de los datos&lt;br&gt;&lt;/font&gt;" style="rounded=1;whiteSpace=wrap;html=1;fontSize=12;fillColor=#f5f5f5;fontColor=#333333;strokeColor=#666666;" vertex="1" parent="1">
          <mxGeometry x="460" y="416" width="100" height="40" as="geometry" />
        </mxCell>
        <mxCell id="YhR1CS_ZlBuHnzhJW7DY-10" value="&lt;font face=&quot;Tahoma&quot;&gt;Modelado&lt;/font&gt;" style="rounded=1;whiteSpace=wrap;html=1;fontSize=12;fillColor=#f5f5f5;fontColor=#333333;strokeColor=#666666;" vertex="1" parent="1">
          <mxGeometry x="460" y="492" width="100" height="40" as="geometry" />
        </mxCell>
        <mxCell id="YhR1CS_ZlBuHnzhJW7DY-11" value="&lt;font face=&quot;Tahoma&quot;&gt;Evaluación&lt;/font&gt;" style="rounded=1;whiteSpace=wrap;html=1;fontSize=12;fillColor=#f5f5f5;fontColor=#333333;strokeColor=#666666;" vertex="1" parent="1">
          <mxGeometry x="347.5" y="570" width="100" height="40" as="geometry" />
        </mxCell>
        <mxCell id="YhR1CS_ZlBuHnzhJW7DY-12" value="&lt;font face=&quot;Tahoma&quot;&gt;Implementación&lt;/font&gt;" style="rounded=1;whiteSpace=wrap;html=1;fontSize=12;fillColor=#f5f5f5;fontColor=#333333;strokeColor=#666666;" vertex="1" parent="1">
          <mxGeometry x="230" y="450" width="100" height="40" as="geometry" />
        </mxCell>
        <mxCell id="YhR1CS_ZlBuHnzhJW7DY-15" value="" style="endArrow=classic;html=1;rounded=0;strokeColor=#7C7C7C;entryX=1;entryY=0.719;entryDx=0;entryDy=0;exitX=0;exitY=0.75;exitDx=0;exitDy=0;curved=1;entryPerimeter=0;" edge="1" parent="1" source="YhR1CS_ZlBuHnzhJW7DY-8" target="YhR1CS_ZlBuHnzhJW7DY-7">
          <mxGeometry width="50" height="50" relative="1" as="geometry">
            <mxPoint x="370" y="350" as="sourcePoint" />
            <mxPoint x="461" y="354" as="targetPoint" />
            <Array as="points">
              <mxPoint x="400" y="370" />
            </Array>
          </mxGeometry>
        </mxCell>
        <mxCell id="YhR1CS_ZlBuHnzhJW7DY-17" value="" style="shape=mxgraph.arrows2.wedgeArrow;html=1;bendable=0;startWidth=4.444444444444443;fillColor=#7C7C7C;defaultFillColor=invert;defaultGradientColor=invert;rounded=0;strokeColor=#7C7C7C;entryX=0.999;entryY=0.53;entryDx=0;entryDy=0;entryPerimeter=0;" edge="1" parent="1" target="YhR1CS_ZlBuHnzhJW7DY-1">
          <mxGeometry width="100" height="100" relative="1" as="geometry">
            <mxPoint x="590" y="460" as="sourcePoint" />
            <mxPoint x="611.76" y="461.155" as="targetPoint" />
          </mxGeometry>
        </mxCell>
        <mxCell id="YhR1CS_ZlBuHnzhJW7DY-18" value="" style="shape=mxgraph.arrows2.wedgeArrow;html=1;bendable=0;startWidth=4.444444444444443;fillColor=#7C7C7C;defaultFillColor=invert;defaultGradientColor=invert;rounded=0;strokeColor=#7C7C7C;entryX=0.562;entryY=0.003;entryDx=0;entryDy=0;entryPerimeter=0;exitX=0.58;exitY=0.99;exitDx=0;exitDy=0;exitPerimeter=0;" edge="1" parent="1">
          <mxGeometry width="100" height="100" relative="1" as="geometry">
            <mxPoint x="399.53999999999996" y="654.9999999999999" as="sourcePoint" />
            <mxPoint x="383" y="655.005" as="targetPoint" />
          </mxGeometry>
        </mxCell>
        <mxCell id="YhR1CS_ZlBuHnzhJW7DY-19" value="" style="shape=mxgraph.arrows2.wedgeArrow;html=1;bendable=0;startWidth=4.444444444444443;fillColor=#7C7C7C;defaultFillColor=invert;defaultGradientColor=invert;rounded=0;strokeColor=#7C7C7C;entryX=0.002;entryY=0.446;entryDx=0;entryDy=0;entryPerimeter=0;" edge="1" parent="1" target="YhR1CS_ZlBuHnzhJW7DY-1">
          <mxGeometry width="100" height="100" relative="1" as="geometry">
            <mxPoint x="205" y="460" as="sourcePoint" />
            <mxPoint x="226.76" y="461.155" as="targetPoint" />
          </mxGeometry>
        </mxCell>
        <mxCell id="YhR1CS_ZlBuHnzhJW7DY-20" value="" style="endArrow=classic;html=1;rounded=0;strokeColor=#7C7C7C;entryX=0;entryY=0.25;entryDx=0;entryDy=0;exitX=1;exitY=0.25;exitDx=0;exitDy=0;curved=1;" edge="1" parent="1" source="YhR1CS_ZlBuHnzhJW7DY-7" target="YhR1CS_ZlBuHnzhJW7DY-8">
          <mxGeometry width="50" height="50" relative="1" as="geometry">
            <mxPoint x="430" y="331" as="sourcePoint" />
            <mxPoint x="370" y="330" as="targetPoint" />
            <Array as="points">
              <mxPoint x="400" y="330" />
            </Array>
          </mxGeometry>
        </mxCell>
        <mxCell id="YhR1CS_ZlBuHnzhJW7DY-22" value="" style="endArrow=classic;html=1;rounded=0;strokeColor=#7C7C7C;entryX=0.5;entryY=0;entryDx=0;entryDy=0;exitX=0.5;exitY=1;exitDx=0;exitDy=0;curved=1;" edge="1" parent="1" source="YhR1CS_ZlBuHnzhJW7DY-8" target="YhR1CS_ZlBuHnzhJW7DY-9">
          <mxGeometry width="50" height="50" relative="1" as="geometry">
            <mxPoint x="520" y="391" as="sourcePoint" />
            <mxPoint x="460" y="390" as="targetPoint" />
            <Array as="points">
              <mxPoint x="510" y="390" />
            </Array>
          </mxGeometry>
        </mxCell>
        <mxCell id="YhR1CS_ZlBuHnzhJW7DY-25" value="" style="endArrow=classic;html=1;rounded=0;strokeColor=#7C7C7C;entryX=0.577;entryY=-0.01;entryDx=0;entryDy=0;exitX=0.645;exitY=1.005;exitDx=0;exitDy=0;curved=1;exitPerimeter=0;entryPerimeter=0;" edge="1" parent="1" target="YhR1CS_ZlBuHnzhJW7DY-10">
          <mxGeometry width="50" height="50" relative="1" as="geometry">
            <mxPoint x="517.5" y="456.20000000000005" as="sourcePoint" />
            <mxPoint x="514.9" y="489.91999999999996" as="targetPoint" />
            <Array as="points">
              <mxPoint x="523" y="470" />
            </Array>
          </mxGeometry>
        </mxCell>
        <mxCell id="YhR1CS_ZlBuHnzhJW7DY-26" value="" style="endArrow=classic;html=1;rounded=0;strokeColor=#7C7C7C;entryX=0.409;entryY=1.007;entryDx=0;entryDy=0;exitX=0.409;exitY=-0.005;exitDx=0;exitDy=0;curved=1;exitPerimeter=0;entryPerimeter=0;" edge="1" parent="1" source="YhR1CS_ZlBuHnzhJW7DY-10" target="YhR1CS_ZlBuHnzhJW7DY-9">
          <mxGeometry width="50" height="50" relative="1" as="geometry">
            <mxPoint x="498" y="489" as="sourcePoint" />
            <mxPoint x="498" y="456" as="targetPoint" />
            <Array as="points">
              <mxPoint x="498" y="470" />
            </Array>
          </mxGeometry>
        </mxCell>
        <mxCell id="YhR1CS_ZlBuHnzhJW7DY-27" value="" style="endArrow=classic;html=1;rounded=0;strokeColor=#7C7C7C;entryX=1;entryY=0.5;entryDx=0;entryDy=0;curved=1;exitX=0.562;exitY=0.999;exitDx=0;exitDy=0;exitPerimeter=0;" edge="1" parent="1" source="YhR1CS_ZlBuHnzhJW7DY-10" target="YhR1CS_ZlBuHnzhJW7DY-11">
          <mxGeometry width="50" height="50" relative="1" as="geometry">
            <mxPoint x="470" y="560" as="sourcePoint" />
            <mxPoint x="530" y="560" as="targetPoint" />
            <Array as="points">
              <mxPoint x="510" y="570" />
            </Array>
          </mxGeometry>
        </mxCell>
        <mxCell id="YhR1CS_ZlBuHnzhJW7DY-28" value="" style="endArrow=classic;html=1;rounded=0;strokeColor=#7C7C7C;entryX=0.5;entryY=1;entryDx=0;entryDy=0;curved=1;exitX=0;exitY=0.5;exitDx=0;exitDy=0;" edge="1" parent="1" source="YhR1CS_ZlBuHnzhJW7DY-11" target="YhR1CS_ZlBuHnzhJW7DY-12">
          <mxGeometry width="50" height="50" relative="1" as="geometry">
            <mxPoint x="330" y="490" as="sourcePoint" />
            <mxPoint x="262" y="548" as="targetPoint" />
            <Array as="points">
              <mxPoint x="280" y="560" />
            </Array>
          </mxGeometry>
        </mxCell>
        <mxCell id="YhR1CS_ZlBuHnzhJW7DY-30" value="" style="html=1;verticalLabelPosition=bottom;align=center;labelBackgroundColor=#ffffff;verticalAlign=top;strokeWidth=2;strokeColor=#7C7C7C;shadow=0;dashed=0;shape=mxgraph.ios7.icons.data;" vertex="1" parent="1">
          <mxGeometry x="367" y="430" width="40" height="44.96" as="geometry" />
        </mxCell>
        <mxCell id="YhR1CS_ZlBuHnzhJW7DY-29" value="" style="html=1;verticalLabelPosition=bottom;align=center;labelBackgroundColor=#ffffff;verticalAlign=top;strokeWidth=2;strokeColor=#7C7C7C;shadow=0;dashed=0;shape=mxgraph.ios7.icons.data;" vertex="1" parent="1">
          <mxGeometry x="383" y="445.04" width="40" height="44.96" as="geometry" />
        </mxCell>
        <mxCell id="YhR1CS_ZlBuHnzhJW7DY-31" value="&lt;font face=&quot;Helvetica&quot; style=&quot;font-size: 10px;&quot;&gt;Datos&lt;/font&gt;" style="text;html=1;align=center;verticalAlign=middle;whiteSpace=wrap;rounded=0;" vertex="1" parent="1">
          <mxGeometry x="373" y="434" width="60" height="30" as="geometry" />
        </mxCell>
        <mxCell id="YhR1CS_ZlBuHnzhJW7DY-32" value="" style="endArrow=classic;html=1;rounded=0;strokeColor=#7C7C7C;entryX=0.989;entryY=0.938;entryDx=0;entryDy=0;curved=1;exitX=0.75;exitY=0;exitDx=0;exitDy=0;entryPerimeter=0;" edge="1" parent="1" source="YhR1CS_ZlBuHnzhJW7DY-11" target="YhR1CS_ZlBuHnzhJW7DY-7">
          <mxGeometry width="50" height="50" relative="1" as="geometry">
            <mxPoint x="428" y="550" as="sourcePoint" />
            <mxPoint x="360" y="450" as="targetPoint" />
            <Array as="points">
              <mxPoint x="500" y="440" />
            </Array>
          </mxGeometry>
        </mxCell>
      </root>
    </mxGraphModel>
  </diagram>
</mxfile>
